# xmcd CD database file
#
# Track frame offsets:
#	150
#	16847
#	28274
#	50487
#	70752
#	90567
#	106612
#	128584
#	143976
#	164666
#
# Disc length: 2342 seconds
#
# Revision: 0
# Processed by: cddbd v1.4PL0 Copyright (c) Steve Scherf et al.
# Submitted via: CDex 1.40Beta9
#
DISCID=7e09240a
DTITLE=Various Artist - The Best Of The Blues  Vol 1
DYEAR=1900
DGENRE=Blues
TTITLE0=Messin With The Kid-Buddy Guy and Junior Wells
TTITLE1=boom Boom-John Lee Hooker
TTITLE2=The Thrill Is Gone-B.B>King
TTITLE3=Glory Be-Lightnin' Hopkins
TTITLE4=Somebody Loan Me A Dime-Fenton Robinson
TTITLE5=AudioDon't Lie To Me-Mike Bloomfield
TTITLE6=Travelin' Blues-Santana
TTITLE7=somebody Got To Me-Gate Mouth Moore
TTITLE8=Got My Mojo Working-Pinetop Perkins
TTITLE9=Baby WhatYou Want Me To Do-Jimmy Reed
EXTD=ID3G: 0
EXTT0=
EXTT1=
EXTT2=
EXTT3=
EXTT4=
EXTT5=
EXTT6=
EXTT7=
EXTT8=
EXTT9=
PLAYORDER=
